PathFileType	4	(X/Y/Z)	PS_ngait_og_ss3.trc	
DataRate	CameraRate	NumFrames	NumMarkers	Units	OrigDataRate	OrigDataStartFrame	OrigNumFrames	
120.00	120.00	4	39	mm	120.00	529	130	
Frame#	Time	Sternum			Neck			RShoulder			LShoulder			Xiphoid			Thoracic			RAsis			LAsis			RPsis			LPsis			LThighSuperior			LThighInferior			LThighLateral			LShankSuperior			LShankInferior			LShankLateral			RThighSuperior			RThighInferior			RThighLateral			RShankSuperior			RShankInferior			RHeel			RToe			RMidfootMedial			RMidfootLateral			RHindfoot			RMidfootSuperior			RToeMedial			RToeLateral			LHeel			LToe			LMidfootMedial			LMidfootLateral			LHindfoot			LMidfootSuperior			LToeMedial			LToeLateral			Sacral			RShankLateral			
		X1	Y1	Z1	X2	Y2	Z2	X3	Y3	Z3	X4	Y4	Z4	X5	Y5	Z5	X6	Y6	Z6	X7	Y7	Z7	X8	Y8	Z8	X9	Y9	Z9	X10	Y10	Z10	X11	Y11	Z11	X12	Y12	Z12	X13	Y13	Z13	X14	Y14	Z14	X15	Y15	Z15	X16	Y16	Z16	X17	Y17	Z17	X18	Y18	Z18	X19	Y19	Z19	X20	Y20	Z20	X21	Y21	Z21	X22	Y22	Z22	X23	Y23	Z23	X24	Y24	Z24	X25	Y25	Z25	X26	Y26	Z26	X27	Y27	Z27	X28	Y28	Z28	X29	Y29	Z29	X30	Y30	Z30	X31	Y31	Z31	X32	Y32	Z32	X33	Y33	Z33	X34	Y34	Z34	X35	Y35	Z35	X36	Y36	Z36	X37	Y37	Z37	X38	Y38	Z38	X39	Y39	Z39	

17	0.133	367.59988	1432.38794	217.82690	202.74574	1528.64941	215.11125	247.73349	1520.52356	377.85422	238.00262	1511.47437	75.92960	402.17291	1272.99023	235.11319	122.84581	1310.62378	225.19408	302.67020	1005.98090	376.25879	337.92831	1004.69220	103.87970	123.64547	1029.46179	274.10974	131.66649	1022.87531	170.44730	308.28925	832.48999	49.80586	387.70499	615.25739	95.31537	429.40570	734.18011	141.36604	425.40829	381.41977	99.77506	416.65738	181.59300	138.37788	455.58307	281.97028	172.67601	229.11742	808.78748	418.54953	219.59294	569.73651	406.07709	327.49402	716.25488	363.39972	131.96686	446.07028	407.80362	-30.30209	256.84714	356.91217	-165.00641	225.26712	292.11716	60.29510	20.66109	319.27341	-21.57897	57.71288	261.55164	-43.61058	50.58640	377.01523	-77.73145	85.56397	363.87787	-30.82058	127.30965	314.05585	13.55801	38.60878	266.55219	1.67400	32.08392	369.14218	333.35651	64.77795	197.05545	643.75885	62.76016	158.66324	549.00354	37.06881	219.18904	540.42120	33.22227	102.80077	486.79327	30.50452	115.91969	520.35498	98.26470	170.48611	590.51208	38.82122	211.93250	584.01831	44.04369	108.25031	127.65598	1026.16858	222.27852	98.64384	314.22433	330.77423 
18	0.142	376.29272	1434.20117	217.16525	211.21861	1530.31970	213.92896	255.87222	1522.38403	376.62808	246.97540	1513.11816	74.69981	410.93356	1274.92004	234.44891	131.45457	1312.08191	224.52310	311.87579	1007.42462	375.69730	347.11301	1006.69495	102.89509	132.83453	1030.92346	273.58069	140.91273	1024.27185	169.81432	315.79138	833.55341	49.87402	392.26584	615.35980	95.37479	437.55359	734.11456	139.71243	427.66699	381.57623	100.05260	416.97327	181.52057	138.42398	457.83136	282.11203	172.97504	242.49055	809.27130	418.73639	237.63623	570.00909	408.12341	339.81488	718.61682	365.63019	150.19565	448.47968	410.29575	-16.78633	263.57166	359.26736	-148.68614	240.01352	294.84586	61.91587	17.40373	318.91660	-16.35324	64.04164	262.75226	-37.44426	56.82029	377.41528	-69.94618	94.57198	365.12854	-17.61679	133.04666	316.80133	16.80672	41.18716	267.09464	5.28529	33.85710	369.67163	333.43344	64.87399	197.16881	643.93640	62.49545	158.73114	549.21912	36.92194	219.39172	540.46375	33.28111	102.91541	486.95044	30.46417	116.45071	520.51740	98.16247	170.74124	590.72968	38.59525	212.05777	584.06555	43.98941	108.39517	136.87364	1027.59766	221.69751	114.88436	317.75479	333.50150 
19	0.150	384.78455	1436.12866	216.34149	219.42261	1531.94348	212.82556	263.76767	1524.22314	375.35132	255.79037	1514.81531	73.54391	419.66110	1277.26355	234.06104	140.10332	1313.51172	223.60036	320.96042	1008.53833	375.07755	356.15070	1008.69147	102.02315	141.92467	1032.46667	273.05167	149.94794	1025.69153	169.08080	322.93738	834.59155	50.21601	396.54391	615.19476	95.33665	444.79797	733.75433	138.05966	429.73987	381.63129	100.12296	417.56030	181.90881	138.78162	459.85864	281.91626	172.83165	255.83041	809.75574	418.84534	255.43546	570.61926	409.86374	351.96619	721.16498	367.76675	168.58362	451.02972	412.61093	-2.22330	270.21564	361.35635	-131.79385	253.69566	297.13110	64.89361	14.88569	320.09320	-9.66708	70.54681	264.25391	-30.33108	63.82792	377.94324	-61.04412	103.83424	366.44437	-2.78958	137.85791	319.93964	22.10443	43.70259	268.86160	10.43027	36.19916	371.40881	333.47556	65.01759	197.31825	644.23547	62.29780	159.02931	548.93231	36.79702	219.33209	540.53595	33.36479	102.98038	486.79602	30.56681	116.39120	520.69989	98.07672	171.03133	590.71124	38.43431	212.05380	584.55536	44.05484	108.37180	145.93631	1029.07910	221.06622	130.45438	322.55307	335.48648 
20	0.158	393.20239	1437.93054	215.86806	227.52818	1533.44531	211.70653	271.60837	1526.01440	374.33981	264.43265	1516.38281	72.48460	428.32535	1279.28723	233.67184	148.53539	1314.88904	222.87372	330.08240	1009.69458	374.35129	364.99060	1010.82397	101.20161	150.91505	1033.97974	272.64273	158.80107	1027.17456	168.45576	329.78827	835.62866	50.74952	400.57913	614.56763	95.18205	451.43686	733.64697	136.92914	432.52499	381.81744	98.96996	418.38568	181.98701	138.78140	461.81134	281.93918	172.78934	269.26785	810.66376	419.22989	272.92804	571.52612	411.25107	364.32675	724.00061	369.28165	186.79893	454.06375	414.81592	13.19089	276.60498	363.25653	-115.65414	264.94751	298.91760	68.10762	11.75217	321.30795	-1.37708	76.57559	265.51993	-21.44927	70.26799	378.55746	-50.73739	112.05247	367.75134	13.78453	141.17448	322.74811	28.45414	45.49162	270.56097	16.34488	38.12230	373.06744	333.40344	65.23338	197.35704	644.47913	62.05257	159.12393	549.01416	36.58359	219.49857	540.45532	33.41906	102.91331	486.76419	30.74315	116.39190	520.85913	98.09886	171.17833	590.92816	38.18158	212.11801	584.73383	44.06279	108.45277	154.85806	1030.57715	220.54924	146.65956	327.23907	337.04810 
